<svg id="Calque_3" data-name="Calque 3" xmlns="http://www.w3.org/2000/svg" viewBox="0 0 198.83 198.83"><defs><style>.cls-1{fill:#13a3b0;}.cls-2{fill:#fff;}.cls-3{fill:none;stroke:#fff;stroke-linecap:round;stroke-miterlimit:10;stroke-width:12px;}</style></defs><circle class="cls-1" cx="99.41" cy="99.41" r="99.41"/><path class="cls-2" d="M94.9,57.27a6.9,6.9,0,0,0-7.25.68L67.71,72.88H44a9,9,0,0,0-9,9v36.34a9,9,0,0,0,9,9H67.71l19.94,14.93a7,7,0,0,0,4.18,1.41,6.86,6.86,0,0,0,3.07-.73,7.9,7.9,0,0,0,4.23-7.18V64.45A7.9,7.9,0,0,0,94.9,57.27Z" transform="translate(-0.59 -0.59)"/><path class="cls-3" d="M115,80.66c6.18,2.37,10.71,10.06,10.71,19.17,0,8.89-4.31,16.43-10.25,19" transform="translate(-0.59 -0.59)"/><path class="cls-3" d="M128.3,67.72c10,5.69,16.87,18,16.87,32.19s-6.94,26.58-17,32.24" transform="translate(-0.59 -0.59)"/><path class="cls-3" d="M141.65,54.77c13.86,8.69,23.27,25.68,23.27,45.21s-9.44,36.57-23.33,45.25" transform="translate(-0.59 -0.59)"/></svg>